<?xml version="1.0" standalone="no"?><!DOCTYPE svg PUBLIC "-//W3C//DTD SVG 1.1//EN" "http://www.w3.org/Graphics/SVG/1.1/DTD/svg11.dtd"><svg t="1573720162459" class="icon" viewBox="0 0 1024 1024" version="1.1" xmlns="http://www.w3.org/2000/svg" p-id="1752" xmlns:xlink="http://www.w3.org/1999/xlink" width="200" height="200"><defs><style type="text/css"></style></defs><path d="M814.08 468.48c-23.04 38.4-61.44 66.56-104.96 79.36h-2.56c-7.68 2.56-15.36 2.56-20.48 2.56-30.72 0-48.64-20.48-38.4-46.08 7.68-17.92 25.6-35.84 48.64-43.52 33.28-12.8 58.88-40.96 58.88-74.24 0-43.52-43.52-81.92-97.28-81.92s-97.28 35.84-97.28 81.92v248.32c0 58.88-35.84 112.64-87.04 143.36-30.72 17.92-64 25.6-97.28 25.6-102.4 0-184.32-74.24-184.32-168.96 0-28.16 7.68-56.32 23.04-81.92 23.04-38.4 61.44-66.56 104.96-79.36 7.68-2.56 15.36-2.56 23.04-2.56 30.72 0 48.64 20.48 38.4 46.08-5.12 17.92-23.04 33.28-43.52 40.96-5.12 5.12-7.68 5.12-10.24 5.12-33.28 12.8-53.76 40.96-53.76 71.68 0 46.08 43.52 81.92 97.28 81.92 53.76 0 97.28-35.84 97.28-81.92v-248.32c0-58.88 35.84-112.64 87.04-143.36 30.72-17.92 64-25.6 97.28-25.6 102.4 0 184.32 74.24 184.32 168.96 0 30.72-7.68 58.88-23.04 81.92M512 0C230.4 0 0 230.4 0 512s230.4 512 512 512 512-230.4 512-512S793.6 0 512 0" p-id="1753"></path></svg>